<svg xmlns="http://www.w3.org/2000/svg" width="512" height="256" viewBox="0 0 128 64">
  <title>Principal com RDS</title>
  <rect width="128" height="64" rx="4" fill="#050b12"/>
  <rect x="0.5" y="0.5" width="127" height="63" rx="4" fill="none" stroke="#dff7ff"/>
  <text x="1" y="8" font-family="Consolas,monospace" font-size="8" font-weight="400" text-anchor="start" fill="#e9f7ff">FM</text>
<rect x="18" y="0.5" width="41" height="10" fill="none" stroke="#dff7ff"/>
<text x="21" y="8" font-family="Consolas,monospace" font-size="7" font-weight="400" text-anchor="start" fill="#e9f7ff">STEREO</text>
<text x="127" y="8" font-family="Consolas,monospace" font-size="7" font-weight="400" text-anchor="end" fill="#e9f7ff">P03</text>
<line x1="0" y1="11" x2="128" y2="11" stroke="#dff7ff" stroke-width="1"/>
<rect x="88" y="8" width="2" height="2" fill="#dff7ff"/>
<rect x="91" y="6" width="2" height="4" fill="#dff7ff"/>
<rect x="94" y="4" width="2" height="6" fill="#dff7ff"/>
<rect x="97" y="9" width="2" height="1" fill="#dff7ff"/>
<rect x="100" y="9" width="2" height="1" fill="#dff7ff"/>
<text x="64" y="29" font-family="Consolas,monospace" font-size="13" font-weight="700" text-anchor="middle" fill="#e9f7ff">Comercial</text>
<text x="64" y="41" font-family="Consolas,monospace" font-size="8" font-weight="400" text-anchor="middle" fill="#e9f7ff">97.40 MHz</text>
<text x="2" y="51" font-family="Consolas,monospace" font-size="7" font-weight="400" text-anchor="start" fill="#e9f7ff">&lt; As melhores musicas sem ...</text>
<line x1="0" y1="53" x2="128" y2="53" stroke="#dff7ff" stroke-width="1"/>
<text x="16" y="62" font-family="Consolas,monospace" font-size="7" font-weight="400" text-anchor="middle" fill="#e9f7ff">1 -</text>
<line x1="32" y1="53" x2="32" y2="64" stroke="#dff7ff" stroke-width="1"/>
<text x="48" y="62" font-family="Consolas,monospace" font-size="7" font-weight="400" text-anchor="middle" fill="#e9f7ff">2 +</text>
<line x1="64" y1="53" x2="64" y2="64" stroke="#dff7ff" stroke-width="1"/>
<text x="80" y="62" font-family="Consolas,monospace" font-size="7" font-weight="400" text-anchor="middle" fill="#e9f7ff">3 VOL</text>
<line x1="96" y1="53" x2="96" y2="64" stroke="#dff7ff" stroke-width="1"/>
<text x="112" y="62" font-family="Consolas,monospace" font-size="7" font-weight="400" text-anchor="middle" fill="#e9f7ff">4 PRE</text>
</svg>
