<svg xmlns="http://www.w3.org/2000/svg" width="512" height="256" viewBox="0 0 128 64">
  <title>Sintonia</title>
  <rect width="128" height="64" rx="4" fill="#050b12"/>
  <rect x="0.5" y="0.5" width="127" height="63" rx="4" fill="none" stroke="#dff7ff"/>
  <text x="1" y="8" font-family="Consolas,monospace" font-size="8" font-weight="400" text-anchor="start" fill="#e9f7ff">FM</text>
<rect x="18" y="0.5" width="29" height="10" fill="none" stroke="#dff7ff"/>
<text x="21" y="8" font-family="Consolas,monospace" font-size="7" font-weight="400" text-anchor="start" fill="#e9f7ff">MONO</text>
<text x="127" y="8" font-family="Consolas,monospace" font-size="7" font-weight="400" text-anchor="end" fill="#e9f7ff">TUNE</text>
<line x1="0" y1="11" x2="128" y2="11" stroke="#dff7ff" stroke-width="1"/>
<rect x="88" y="8" width="2" height="2" fill="#dff7ff"/>
<rect x="91" y="6" width="2" height="4" fill="#dff7ff"/>
<rect x="94" y="9" width="2" height="1" fill="#dff7ff"/>
<rect x="97" y="9" width="2" height="1" fill="#dff7ff"/>
<rect x="100" y="9" width="2" height="1" fill="#dff7ff"/>
<text x="64" y="31" font-family="Consolas,monospace" font-size="18" font-weight="700" text-anchor="middle" fill="#e9f7ff">98.70</text>
<polygon points="1,25 7,20 7,30" fill="#dff7ff"/>
<polygon points="127,25 121,20 121,30" fill="#dff7ff"/>
<line x1="6" y1="49" x2="122" y2="49" stroke="#dff7ff"/>
<line x1="6.0" y1="47" x2="6.0" y2="51" stroke="#dff7ff"/>
<text x="6.0" y="42" font-family="Consolas,monospace" font-size="7" font-weight="400" text-anchor="middle" fill="#e9f7ff">88</text>
<line x1="29.2" y1="47" x2="29.2" y2="51" stroke="#dff7ff"/>
<text x="29.200000000000003" y="42" font-family="Consolas,monospace" font-size="7" font-weight="400" text-anchor="middle" fill="#e9f7ff">92</text>
<line x1="52.4" y1="47" x2="52.4" y2="51" stroke="#dff7ff"/>
<text x="52.400000000000006" y="42" font-family="Consolas,monospace" font-size="7" font-weight="400" text-anchor="middle" fill="#e9f7ff">96</text>
<line x1="75.6" y1="47" x2="75.6" y2="51" stroke="#dff7ff"/>
<text x="75.6" y="42" font-family="Consolas,monospace" font-size="7" font-weight="400" text-anchor="middle" fill="#e9f7ff">100</text>
<line x1="98.8" y1="47" x2="98.8" y2="51" stroke="#dff7ff"/>
<text x="98.80000000000001" y="42" font-family="Consolas,monospace" font-size="7" font-weight="400" text-anchor="middle" fill="#e9f7ff">104</text>
<line x1="122.0" y1="47" x2="122.0" y2="51" stroke="#dff7ff"/>
<text x="122.0" y="42" font-family="Consolas,monospace" font-size="7" font-weight="400" text-anchor="middle" fill="#e9f7ff">108</text>
<polygon points="68.1,48 65.1,43 71.1,43" fill="#dff7ff"/>
<line x1="0" y1="53" x2="128" y2="53" stroke="#dff7ff" stroke-width="1"/>
<text x="16" y="62" font-family="Consolas,monospace" font-size="7" font-weight="400" text-anchor="middle" fill="#e9f7ff">1 -</text>
<line x1="32" y1="53" x2="32" y2="64" stroke="#dff7ff" stroke-width="1"/>
<text x="48" y="62" font-family="Consolas,monospace" font-size="7" font-weight="400" text-anchor="middle" fill="#e9f7ff">2 +</text>
<line x1="64" y1="53" x2="64" y2="64" stroke="#dff7ff" stroke-width="1"/>
<text x="80" y="62" font-family="Consolas,monospace" font-size="7" font-weight="400" text-anchor="middle" fill="#e9f7ff">3 PAS</text>
<line x1="96" y1="53" x2="96" y2="64" stroke="#dff7ff" stroke-width="1"/>
<text x="112" y="62" font-family="Consolas,monospace" font-size="7" font-weight="400" text-anchor="middle" fill="#e9f7ff">4 SAI</text>
</svg>
