<svg xmlns="http://www.w3.org/2000/svg" width="512" height="256" viewBox="0 0 128 64">
  <title>Volume</title>
  <rect width="128" height="64" rx="4" fill="#050b12"/>
  <rect x="0.5" y="0.5" width="127" height="63" rx="4" fill="none" stroke="#dff7ff"/>
  <text x="1" y="8" font-family="Consolas,monospace" font-size="8" font-weight="400" text-anchor="start" fill="#e9f7ff">VOLUME</text>
<text x="127" y="8" font-family="Consolas,monospace" font-size="8" font-weight="400" text-anchor="end" fill="#e9f7ff">STEREO</text>
<line x1="0" y1="11" x2="128" y2="11" stroke="#dff7ff"/>
<rect x="14" y="17" width="1" height="1" fill="#dff7ff"/>
<rect x="15" y="17" width="1" height="1" fill="#dff7ff"/>
<rect x="15" y="18" width="1" height="1" fill="#dff7ff"/>
<rect x="16" y="18" width="1" height="1" fill="#dff7ff"/>
<rect x="12" y="19" width="1" height="1" fill="#dff7ff"/>
<rect x="14" y="19" width="1" height="1" fill="#dff7ff"/>
<rect x="16" y="19" width="1" height="1" fill="#dff7ff"/>
<rect x="17" y="19" width="1" height="1" fill="#dff7ff"/>
<rect x="11" y="20" width="1" height="1" fill="#dff7ff"/>
<rect x="12" y="20" width="1" height="1" fill="#dff7ff"/>
<rect x="14" y="20" width="1" height="1" fill="#dff7ff"/>
<rect x="15" y="20" width="1" height="1" fill="#dff7ff"/>
<rect x="17" y="20" width="1" height="1" fill="#dff7ff"/>
<rect x="18" y="20" width="1" height="1" fill="#dff7ff"/>
<rect x="10" y="21" width="1" height="1" fill="#dff7ff"/>
<rect x="11" y="21" width="1" height="1" fill="#dff7ff"/>
<rect x="12" y="21" width="1" height="1" fill="#dff7ff"/>
<rect x="15" y="21" width="1" height="1" fill="#dff7ff"/>
<rect x="16" y="21" width="1" height="1" fill="#dff7ff"/>
<rect x="18" y="21" width="1" height="1" fill="#dff7ff"/>
<rect x="5" y="22" width="1" height="1" fill="#dff7ff"/>
<rect x="6" y="22" width="1" height="1" fill="#dff7ff"/>
<rect x="7" y="22" width="1" height="1" fill="#dff7ff"/>
<rect x="8" y="22" width="1" height="1" fill="#dff7ff"/>
<rect x="9" y="22" width="1" height="1" fill="#dff7ff"/>
<rect x="10" y="22" width="1" height="1" fill="#dff7ff"/>
<rect x="11" y="22" width="1" height="1" fill="#dff7ff"/>
<rect x="12" y="22" width="1" height="1" fill="#dff7ff"/>
<rect x="16" y="22" width="1" height="1" fill="#dff7ff"/>
<rect x="18" y="22" width="1" height="1" fill="#dff7ff"/>
<rect x="5" y="23" width="1" height="1" fill="#dff7ff"/>
<rect x="6" y="23" width="1" height="1" fill="#dff7ff"/>
<rect x="7" y="23" width="1" height="1" fill="#dff7ff"/>
<rect x="8" y="23" width="1" height="1" fill="#dff7ff"/>
<rect x="9" y="23" width="1" height="1" fill="#dff7ff"/>
<rect x="10" y="23" width="1" height="1" fill="#dff7ff"/>
<rect x="11" y="23" width="1" height="1" fill="#dff7ff"/>
<rect x="12" y="23" width="1" height="1" fill="#dff7ff"/>
<rect x="16" y="23" width="1" height="1" fill="#dff7ff"/>
<rect x="18" y="23" width="1" height="1" fill="#dff7ff"/>
<rect x="5" y="24" width="1" height="1" fill="#dff7ff"/>
<rect x="6" y="24" width="1" height="1" fill="#dff7ff"/>
<rect x="7" y="24" width="1" height="1" fill="#dff7ff"/>
<rect x="8" y="24" width="1" height="1" fill="#dff7ff"/>
<rect x="9" y="24" width="1" height="1" fill="#dff7ff"/>
<rect x="10" y="24" width="1" height="1" fill="#dff7ff"/>
<rect x="11" y="24" width="1" height="1" fill="#dff7ff"/>
<rect x="12" y="24" width="1" height="1" fill="#dff7ff"/>
<rect x="16" y="24" width="1" height="1" fill="#dff7ff"/>
<rect x="18" y="24" width="1" height="1" fill="#dff7ff"/>
<rect x="5" y="25" width="1" height="1" fill="#dff7ff"/>
<rect x="6" y="25" width="1" height="1" fill="#dff7ff"/>
<rect x="7" y="25" width="1" height="1" fill="#dff7ff"/>
<rect x="8" y="25" width="1" height="1" fill="#dff7ff"/>
<rect x="10" y="25" width="1" height="1" fill="#dff7ff"/>
<rect x="11" y="25" width="1" height="1" fill="#dff7ff"/>
<rect x="12" y="25" width="1" height="1" fill="#dff7ff"/>
<rect x="15" y="25" width="1" height="1" fill="#dff7ff"/>
<rect x="16" y="25" width="1" height="1" fill="#dff7ff"/>
<rect x="18" y="25" width="1" height="1" fill="#dff7ff"/>
<rect x="11" y="26" width="1" height="1" fill="#dff7ff"/>
<rect x="12" y="26" width="1" height="1" fill="#dff7ff"/>
<rect x="14" y="26" width="1" height="1" fill="#dff7ff"/>
<rect x="15" y="26" width="1" height="1" fill="#dff7ff"/>
<rect x="17" y="26" width="1" height="1" fill="#dff7ff"/>
<rect x="18" y="26" width="1" height="1" fill="#dff7ff"/>
<rect x="12" y="27" width="1" height="1" fill="#dff7ff"/>
<rect x="14" y="27" width="1" height="1" fill="#dff7ff"/>
<rect x="16" y="27" width="1" height="1" fill="#dff7ff"/>
<rect x="17" y="27" width="1" height="1" fill="#dff7ff"/>
<rect x="15" y="28" width="1" height="1" fill="#dff7ff"/>
<rect x="16" y="28" width="1" height="1" fill="#dff7ff"/>
<rect x="14" y="29" width="1" height="1" fill="#dff7ff"/>
<rect x="15" y="29" width="1" height="1" fill="#dff7ff"/>
<text x="64" y="34" font-family="Consolas,monospace" font-size="20" font-weight="700" text-anchor="middle" fill="#e9f7ff">14</text>
<text x="7" y="49" font-family="Consolas,monospace" font-size="7" font-weight="400" text-anchor="start" fill="#e9f7ff">0</text>
<rect x="18" y="42" width="5" height="8" fill="#dff7ff"/>
<rect x="24" y="42" width="5" height="8" fill="#dff7ff"/>
<rect x="30" y="42" width="5" height="8" fill="#dff7ff"/>
<rect x="36" y="42" width="5" height="8" fill="#dff7ff"/>
<rect x="42" y="42" width="5" height="8" fill="#dff7ff"/>
<rect x="48" y="42" width="5" height="8" fill="#dff7ff"/>
<rect x="54" y="42" width="5" height="8" fill="#dff7ff"/>
<rect x="60" y="42" width="5" height="8" fill="none" stroke="#dff7ff"/>
<rect x="66" y="42" width="5" height="8" fill="none" stroke="#dff7ff"/>
<rect x="72" y="42" width="5" height="8" fill="none" stroke="#dff7ff"/>
<rect x="78" y="42" width="5" height="8" fill="none" stroke="#dff7ff"/>
<rect x="84" y="42" width="5" height="8" fill="none" stroke="#dff7ff"/>
<rect x="90" y="42" width="5" height="8" fill="none" stroke="#dff7ff"/>
<rect x="96" y="42" width="5" height="8" fill="none" stroke="#dff7ff"/>
<rect x="102" y="42" width="5" height="8" fill="none" stroke="#dff7ff"/>
<text x="122" y="49" font-family="Consolas,monospace" font-size="7" font-weight="400" text-anchor="end" fill="#e9f7ff">30</text>
<line x1="0" y1="53" x2="128" y2="53" stroke="#dff7ff" stroke-width="1"/>
<text x="16" y="62" font-family="Consolas,monospace" font-size="7" font-weight="400" text-anchor="middle" fill="#e9f7ff">1 -</text>
<line x1="32" y1="53" x2="32" y2="64" stroke="#dff7ff" stroke-width="1"/>
<text x="48" y="62" font-family="Consolas,monospace" font-size="7" font-weight="400" text-anchor="middle" fill="#e9f7ff">2 +</text>
<line x1="64" y1="53" x2="64" y2="64" stroke="#dff7ff" stroke-width="1"/>
<text x="80" y="62" font-family="Consolas,monospace" font-size="7" font-weight="400" text-anchor="middle" fill="#e9f7ff">3 MUT</text>
<line x1="96" y1="53" x2="96" y2="64" stroke="#dff7ff" stroke-width="1"/>
<text x="112" y="62" font-family="Consolas,monospace" font-size="7" font-weight="400" text-anchor="middle" fill="#e9f7ff">4 OK</text>
</svg>
