<svg xmlns="http://www.w3.org/2000/svg" width="512" height="256" viewBox="0 0 128 64">
  <title>Scan AUTO</title>
  <rect width="128" height="64" rx="4" fill="#050b12"/>
  <rect x="0.5" y="0.5" width="127" height="63" rx="4" fill="none" stroke="#dff7ff"/>
  <text x="1" y="8" font-family="Consolas,monospace" font-size="8" font-weight="400" text-anchor="start" fill="#e9f7ff">FM</text>
<rect x="18" y="0.5" width="41" height="10" fill="none" stroke="#dff7ff"/>
<text x="21" y="8" font-family="Consolas,monospace" font-size="7" font-weight="400" text-anchor="start" fill="#e9f7ff">STEREO</text>
<text x="127" y="8" font-family="Consolas,monospace" font-size="7" font-weight="400" text-anchor="end" fill="#e9f7ff">SCAN</text>
<line x1="0" y1="11" x2="128" y2="11" stroke="#dff7ff" stroke-width="1"/>
<rect x="88" y="8" width="2" height="2" fill="#dff7ff"/>
<rect x="91" y="6" width="2" height="4" fill="#dff7ff"/>
<rect x="94" y="4" width="2" height="6" fill="#dff7ff"/>
<rect x="97" y="2" width="2" height="8" fill="#dff7ff"/>
<rect x="100" y="9" width="2" height="1" fill="#dff7ff"/>
<text x="64" y="32" font-family="Consolas,monospace" font-size="18" font-weight="700" text-anchor="middle" fill="#e9f7ff">101.20</text>
<text x="64" y="43" font-family="Consolas,monospace" font-size="8" font-weight="400" text-anchor="middle" fill="#e9f7ff">AUTO -&gt; P04</text>
<line x1="6" y1="50" x2="122" y2="50" stroke="#dff7ff"/>
<line x1="6.0" y1="48" x2="6.0" y2="52" stroke="#dff7ff"/>
<line x1="29.2" y1="48" x2="29.2" y2="52" stroke="#dff7ff"/>
<line x1="52.4" y1="48" x2="52.4" y2="52" stroke="#dff7ff"/>
<line x1="75.6" y1="48" x2="75.6" y2="52" stroke="#dff7ff"/>
<line x1="98.8" y1="48" x2="98.8" y2="52" stroke="#dff7ff"/>
<line x1="122.0" y1="48" x2="122.0" y2="52" stroke="#dff7ff"/>
<polygon points="82.6,49 79.6,44 85.6,44" fill="#dff7ff"/>
<line x1="0" y1="53" x2="128" y2="53" stroke="#dff7ff" stroke-width="1"/>
<text x="16" y="62" font-family="Consolas,monospace" font-size="7" font-weight="400" text-anchor="middle" fill="#e9f7ff">1 STP</text>
<line x1="32" y1="53" x2="32" y2="64" stroke="#dff7ff" stroke-width="1"/>
<text x="48" y="62" font-family="Consolas,monospace" font-size="7" font-weight="400" text-anchor="middle" fill="#e9f7ff">2 &gt;&gt;</text>
<line x1="64" y1="53" x2="64" y2="64" stroke="#dff7ff" stroke-width="1"/>
<text x="80" y="62" font-family="Consolas,monospace" font-size="7" font-weight="400" text-anchor="middle" fill="#e9f7ff">3 PARA</text>
<line x1="96" y1="53" x2="96" y2="64" stroke="#dff7ff" stroke-width="1"/>
<text x="112" y="62" font-family="Consolas,monospace" font-size="7" font-weight="400" text-anchor="middle" fill="#e9f7ff">4 SAI</text>
</svg>
