<svg xmlns="http://www.w3.org/2000/svg" width="512" height="256" viewBox="0 0 128 64">
  <title>Menu</title>
  <rect width="128" height="64" rx="4" fill="#050b12"/>
  <rect x="0.5" y="0.5" width="127" height="63" rx="4" fill="none" stroke="#dff7ff"/>
  <rect x="76" y="4" width="23" height="32" rx="3" fill="#dff7ff"/>
<rect x="17" y="14" width="1" height="1" fill="#dff7ff"/>
<rect x="18" y="14" width="1" height="1" fill="#dff7ff"/>
<rect x="16" y="15" width="1" height="1" fill="#dff7ff"/>
<rect x="17" y="15" width="1" height="1" fill="#dff7ff"/>
<rect x="18" y="15" width="1" height="1" fill="#dff7ff"/>
<rect x="15" y="16" width="1" height="1" fill="#dff7ff"/>
<rect x="16" y="16" width="1" height="1" fill="#dff7ff"/>
<rect x="14" y="17" width="1" height="1" fill="#dff7ff"/>
<rect x="15" y="17" width="1" height="1" fill="#dff7ff"/>
<rect x="5" y="18" width="1" height="1" fill="#dff7ff"/>
<rect x="6" y="18" width="1" height="1" fill="#dff7ff"/>
<rect x="7" y="18" width="1" height="1" fill="#dff7ff"/>
<rect x="8" y="18" width="1" height="1" fill="#dff7ff"/>
<rect x="9" y="18" width="1" height="1" fill="#dff7ff"/>
<rect x="10" y="18" width="1" height="1" fill="#dff7ff"/>
<rect x="11" y="18" width="1" height="1" fill="#dff7ff"/>
<rect x="12" y="18" width="1" height="1" fill="#dff7ff"/>
<rect x="13" y="18" width="1" height="1" fill="#dff7ff"/>
<rect x="14" y="18" width="1" height="1" fill="#dff7ff"/>
<rect x="15" y="18" width="1" height="1" fill="#dff7ff"/>
<rect x="16" y="18" width="1" height="1" fill="#dff7ff"/>
<rect x="17" y="18" width="1" height="1" fill="#dff7ff"/>
<rect x="18" y="18" width="1" height="1" fill="#dff7ff"/>
<rect x="5" y="19" width="1" height="1" fill="#dff7ff"/>
<rect x="6" y="19" width="1" height="1" fill="#dff7ff"/>
<rect x="7" y="19" width="1" height="1" fill="#dff7ff"/>
<rect x="8" y="19" width="1" height="1" fill="#dff7ff"/>
<rect x="9" y="19" width="1" height="1" fill="#dff7ff"/>
<rect x="10" y="19" width="1" height="1" fill="#dff7ff"/>
<rect x="11" y="19" width="1" height="1" fill="#dff7ff"/>
<rect x="12" y="19" width="1" height="1" fill="#dff7ff"/>
<rect x="13" y="19" width="1" height="1" fill="#dff7ff"/>
<rect x="14" y="19" width="1" height="1" fill="#dff7ff"/>
<rect x="15" y="19" width="1" height="1" fill="#dff7ff"/>
<rect x="16" y="19" width="1" height="1" fill="#dff7ff"/>
<rect x="17" y="19" width="1" height="1" fill="#dff7ff"/>
<rect x="18" y="19" width="1" height="1" fill="#dff7ff"/>
<rect x="5" y="20" width="1" height="1" fill="#dff7ff"/>
<rect x="6" y="20" width="1" height="1" fill="#dff7ff"/>
<rect x="7" y="20" width="1" height="1" fill="#dff7ff"/>
<rect x="8" y="20" width="1" height="1" fill="#dff7ff"/>
<rect x="9" y="20" width="1" height="1" fill="#dff7ff"/>
<rect x="10" y="20" width="1" height="1" fill="#dff7ff"/>
<rect x="11" y="20" width="1" height="1" fill="#dff7ff"/>
<rect x="12" y="20" width="1" height="1" fill="#dff7ff"/>
<rect x="17" y="20" width="1" height="1" fill="#dff7ff"/>
<rect x="18" y="20" width="1" height="1" fill="#dff7ff"/>
<rect x="5" y="21" width="1" height="1" fill="#dff7ff"/>
<rect x="6" y="21" width="1" height="1" fill="#dff7ff"/>
<rect x="11" y="21" width="1" height="1" fill="#dff7ff"/>
<rect x="12" y="21" width="1" height="1" fill="#dff7ff"/>
<rect x="13" y="21" width="1" height="1" fill="#dff7ff"/>
<rect x="14" y="21" width="1" height="1" fill="#dff7ff"/>
<rect x="15" y="21" width="1" height="1" fill="#dff7ff"/>
<rect x="16" y="21" width="1" height="1" fill="#dff7ff"/>
<rect x="17" y="21" width="1" height="1" fill="#dff7ff"/>
<rect x="18" y="21" width="1" height="1" fill="#dff7ff"/>
<rect x="5" y="22" width="1" height="1" fill="#dff7ff"/>
<rect x="12" y="22" width="1" height="1" fill="#dff7ff"/>
<rect x="13" y="22" width="1" height="1" fill="#dff7ff"/>
<rect x="14" y="22" width="1" height="1" fill="#dff7ff"/>
<rect x="15" y="22" width="1" height="1" fill="#dff7ff"/>
<rect x="16" y="22" width="1" height="1" fill="#dff7ff"/>
<rect x="17" y="22" width="1" height="1" fill="#dff7ff"/>
<rect x="18" y="22" width="1" height="1" fill="#dff7ff"/>
<rect x="5" y="23" width="1" height="1" fill="#dff7ff"/>
<rect x="12" y="23" width="1" height="1" fill="#dff7ff"/>
<rect x="13" y="23" width="1" height="1" fill="#dff7ff"/>
<rect x="14" y="23" width="1" height="1" fill="#dff7ff"/>
<rect x="15" y="23" width="1" height="1" fill="#dff7ff"/>
<rect x="16" y="23" width="1" height="1" fill="#dff7ff"/>
<rect x="17" y="23" width="1" height="1" fill="#dff7ff"/>
<rect x="18" y="23" width="1" height="1" fill="#dff7ff"/>
<rect x="5" y="24" width="1" height="1" fill="#dff7ff"/>
<rect x="12" y="24" width="1" height="1" fill="#dff7ff"/>
<rect x="17" y="24" width="1" height="1" fill="#dff7ff"/>
<rect x="18" y="24" width="1" height="1" fill="#dff7ff"/>
<rect x="5" y="25" width="1" height="1" fill="#dff7ff"/>
<rect x="6" y="25" width="1" height="1" fill="#dff7ff"/>
<rect x="11" y="25" width="1" height="1" fill="#dff7ff"/>
<rect x="12" y="25" width="1" height="1" fill="#dff7ff"/>
<rect x="17" y="25" width="1" height="1" fill="#dff7ff"/>
<rect x="18" y="25" width="1" height="1" fill="#dff7ff"/>
<rect x="5" y="26" width="1" height="1" fill="#dff7ff"/>
<rect x="6" y="26" width="1" height="1" fill="#dff7ff"/>
<rect x="7" y="26" width="1" height="1" fill="#dff7ff"/>
<rect x="8" y="26" width="1" height="1" fill="#dff7ff"/>
<rect x="9" y="26" width="1" height="1" fill="#dff7ff"/>
<rect x="10" y="26" width="1" height="1" fill="#dff7ff"/>
<rect x="11" y="26" width="1" height="1" fill="#dff7ff"/>
<rect x="12" y="26" width="1" height="1" fill="#dff7ff"/>
<rect x="13" y="26" width="1" height="1" fill="#dff7ff"/>
<rect x="14" y="26" width="1" height="1" fill="#dff7ff"/>
<rect x="15" y="26" width="1" height="1" fill="#dff7ff"/>
<rect x="16" y="26" width="1" height="1" fill="#dff7ff"/>
<rect x="17" y="26" width="1" height="1" fill="#dff7ff"/>
<rect x="18" y="26" width="1" height="1" fill="#dff7ff"/>
<rect x="5" y="27" width="1" height="1" fill="#dff7ff"/>
<rect x="6" y="27" width="1" height="1" fill="#dff7ff"/>
<rect x="7" y="27" width="1" height="1" fill="#dff7ff"/>
<rect x="8" y="27" width="1" height="1" fill="#dff7ff"/>
<rect x="9" y="27" width="1" height="1" fill="#dff7ff"/>
<rect x="10" y="27" width="1" height="1" fill="#dff7ff"/>
<rect x="11" y="27" width="1" height="1" fill="#dff7ff"/>
<rect x="12" y="27" width="1" height="1" fill="#dff7ff"/>
<rect x="13" y="27" width="1" height="1" fill="#dff7ff"/>
<rect x="14" y="27" width="1" height="1" fill="#dff7ff"/>
<rect x="15" y="27" width="1" height="1" fill="#dff7ff"/>
<rect x="16" y="27" width="1" height="1" fill="#dff7ff"/>
<rect x="17" y="27" width="1" height="1" fill="#dff7ff"/>
<rect x="18" y="27" width="1" height="1" fill="#dff7ff"/>
<rect x="36" y="14" width="1" height="1" fill="#dff7ff"/>
<rect x="36" y="15" width="1" height="1" fill="#dff7ff"/>
<rect x="36" y="16" width="1" height="1" fill="#dff7ff"/>
<rect x="35" y="17" width="1" height="1" fill="#dff7ff"/>
<rect x="36" y="17" width="1" height="1" fill="#dff7ff"/>
<rect x="37" y="17" width="1" height="1" fill="#dff7ff"/>
<rect x="35" y="18" width="1" height="1" fill="#dff7ff"/>
<rect x="36" y="18" width="1" height="1" fill="#dff7ff"/>
<rect x="37" y="18" width="1" height="1" fill="#dff7ff"/>
<rect x="30" y="19" width="1" height="1" fill="#dff7ff"/>
<rect x="31" y="19" width="1" height="1" fill="#dff7ff"/>
<rect x="32" y="19" width="1" height="1" fill="#dff7ff"/>
<rect x="33" y="19" width="1" height="1" fill="#dff7ff"/>
<rect x="34" y="19" width="1" height="1" fill="#dff7ff"/>
<rect x="35" y="19" width="1" height="1" fill="#dff7ff"/>
<rect x="36" y="19" width="1" height="1" fill="#dff7ff"/>
<rect x="37" y="19" width="1" height="1" fill="#dff7ff"/>
<rect x="38" y="19" width="1" height="1" fill="#dff7ff"/>
<rect x="39" y="19" width="1" height="1" fill="#dff7ff"/>
<rect x="40" y="19" width="1" height="1" fill="#dff7ff"/>
<rect x="41" y="19" width="1" height="1" fill="#dff7ff"/>
<rect x="42" y="19" width="1" height="1" fill="#dff7ff"/>
<rect x="31" y="20" width="1" height="1" fill="#dff7ff"/>
<rect x="32" y="20" width="1" height="1" fill="#dff7ff"/>
<rect x="33" y="20" width="1" height="1" fill="#dff7ff"/>
<rect x="34" y="20" width="1" height="1" fill="#dff7ff"/>
<rect x="35" y="20" width="1" height="1" fill="#dff7ff"/>
<rect x="36" y="20" width="1" height="1" fill="#dff7ff"/>
<rect x="37" y="20" width="1" height="1" fill="#dff7ff"/>
<rect x="38" y="20" width="1" height="1" fill="#dff7ff"/>
<rect x="39" y="20" width="1" height="1" fill="#dff7ff"/>
<rect x="40" y="20" width="1" height="1" fill="#dff7ff"/>
<rect x="41" y="20" width="1" height="1" fill="#dff7ff"/>
<rect x="32" y="21" width="1" height="1" fill="#dff7ff"/>
<rect x="33" y="21" width="1" height="1" fill="#dff7ff"/>
<rect x="34" y="21" width="1" height="1" fill="#dff7ff"/>
<rect x="35" y="21" width="1" height="1" fill="#dff7ff"/>
<rect x="36" y="21" width="1" height="1" fill="#dff7ff"/>
<rect x="37" y="21" width="1" height="1" fill="#dff7ff"/>
<rect x="38" y="21" width="1" height="1" fill="#dff7ff"/>
<rect x="39" y="21" width="1" height="1" fill="#dff7ff"/>
<rect x="40" y="21" width="1" height="1" fill="#dff7ff"/>
<rect x="34" y="22" width="1" height="1" fill="#dff7ff"/>
<rect x="35" y="22" width="1" height="1" fill="#dff7ff"/>
<rect x="36" y="22" width="1" height="1" fill="#dff7ff"/>
<rect x="37" y="22" width="1" height="1" fill="#dff7ff"/>
<rect x="38" y="22" width="1" height="1" fill="#dff7ff"/>
<rect x="33" y="23" width="1" height="1" fill="#dff7ff"/>
<rect x="34" y="23" width="1" height="1" fill="#dff7ff"/>
<rect x="35" y="23" width="1" height="1" fill="#dff7ff"/>
<rect x="36" y="23" width="1" height="1" fill="#dff7ff"/>
<rect x="37" y="23" width="1" height="1" fill="#dff7ff"/>
<rect x="38" y="23" width="1" height="1" fill="#dff7ff"/>
<rect x="39" y="23" width="1" height="1" fill="#dff7ff"/>
<rect x="33" y="24" width="1" height="1" fill="#dff7ff"/>
<rect x="34" y="24" width="1" height="1" fill="#dff7ff"/>
<rect x="35" y="24" width="1" height="1" fill="#dff7ff"/>
<rect x="36" y="24" width="1" height="1" fill="#dff7ff"/>
<rect x="37" y="24" width="1" height="1" fill="#dff7ff"/>
<rect x="38" y="24" width="1" height="1" fill="#dff7ff"/>
<rect x="39" y="24" width="1" height="1" fill="#dff7ff"/>
<rect x="33" y="25" width="1" height="1" fill="#dff7ff"/>
<rect x="34" y="25" width="1" height="1" fill="#dff7ff"/>
<rect x="38" y="25" width="1" height="1" fill="#dff7ff"/>
<rect x="39" y="25" width="1" height="1" fill="#dff7ff"/>
<rect x="32" y="26" width="1" height="1" fill="#dff7ff"/>
<rect x="33" y="26" width="1" height="1" fill="#dff7ff"/>
<rect x="39" y="26" width="1" height="1" fill="#dff7ff"/>
<rect x="40" y="26" width="1" height="1" fill="#dff7ff"/>
<rect x="64" y="15" width="1" height="1" fill="#dff7ff"/>
<rect x="65" y="15" width="1" height="1" fill="#dff7ff"/>
<rect x="65" y="16" width="1" height="1" fill="#dff7ff"/>
<rect x="66" y="16" width="1" height="1" fill="#dff7ff"/>
<rect x="62" y="17" width="1" height="1" fill="#dff7ff"/>
<rect x="64" y="17" width="1" height="1" fill="#dff7ff"/>
<rect x="66" y="17" width="1" height="1" fill="#dff7ff"/>
<rect x="67" y="17" width="1" height="1" fill="#dff7ff"/>
<rect x="61" y="18" width="1" height="1" fill="#dff7ff"/>
<rect x="62" y="18" width="1" height="1" fill="#dff7ff"/>
<rect x="64" y="18" width="1" height="1" fill="#dff7ff"/>
<rect x="65" y="18" width="1" height="1" fill="#dff7ff"/>
<rect x="67" y="18" width="1" height="1" fill="#dff7ff"/>
<rect x="68" y="18" width="1" height="1" fill="#dff7ff"/>
<rect x="60" y="19" width="1" height="1" fill="#dff7ff"/>
<rect x="61" y="19" width="1" height="1" fill="#dff7ff"/>
<rect x="62" y="19" width="1" height="1" fill="#dff7ff"/>
<rect x="65" y="19" width="1" height="1" fill="#dff7ff"/>
<rect x="66" y="19" width="1" height="1" fill="#dff7ff"/>
<rect x="68" y="19" width="1" height="1" fill="#dff7ff"/>
<rect x="55" y="20" width="1" height="1" fill="#dff7ff"/>
<rect x="56" y="20" width="1" height="1" fill="#dff7ff"/>
<rect x="57" y="20" width="1" height="1" fill="#dff7ff"/>
<rect x="58" y="20" width="1" height="1" fill="#dff7ff"/>
<rect x="59" y="20" width="1" height="1" fill="#dff7ff"/>
<rect x="60" y="20" width="1" height="1" fill="#dff7ff"/>
<rect x="61" y="20" width="1" height="1" fill="#dff7ff"/>
<rect x="62" y="20" width="1" height="1" fill="#dff7ff"/>
<rect x="66" y="20" width="1" height="1" fill="#dff7ff"/>
<rect x="68" y="20" width="1" height="1" fill="#dff7ff"/>
<rect x="55" y="21" width="1" height="1" fill="#dff7ff"/>
<rect x="56" y="21" width="1" height="1" fill="#dff7ff"/>
<rect x="57" y="21" width="1" height="1" fill="#dff7ff"/>
<rect x="58" y="21" width="1" height="1" fill="#dff7ff"/>
<rect x="59" y="21" width="1" height="1" fill="#dff7ff"/>
<rect x="60" y="21" width="1" height="1" fill="#dff7ff"/>
<rect x="61" y="21" width="1" height="1" fill="#dff7ff"/>
<rect x="62" y="21" width="1" height="1" fill="#dff7ff"/>
<rect x="66" y="21" width="1" height="1" fill="#dff7ff"/>
<rect x="68" y="21" width="1" height="1" fill="#dff7ff"/>
<rect x="55" y="22" width="1" height="1" fill="#dff7ff"/>
<rect x="56" y="22" width="1" height="1" fill="#dff7ff"/>
<rect x="57" y="22" width="1" height="1" fill="#dff7ff"/>
<rect x="58" y="22" width="1" height="1" fill="#dff7ff"/>
<rect x="59" y="22" width="1" height="1" fill="#dff7ff"/>
<rect x="60" y="22" width="1" height="1" fill="#dff7ff"/>
<rect x="61" y="22" width="1" height="1" fill="#dff7ff"/>
<rect x="62" y="22" width="1" height="1" fill="#dff7ff"/>
<rect x="66" y="22" width="1" height="1" fill="#dff7ff"/>
<rect x="68" y="22" width="1" height="1" fill="#dff7ff"/>
<rect x="55" y="23" width="1" height="1" fill="#dff7ff"/>
<rect x="56" y="23" width="1" height="1" fill="#dff7ff"/>
<rect x="57" y="23" width="1" height="1" fill="#dff7ff"/>
<rect x="58" y="23" width="1" height="1" fill="#dff7ff"/>
<rect x="60" y="23" width="1" height="1" fill="#dff7ff"/>
<rect x="61" y="23" width="1" height="1" fill="#dff7ff"/>
<rect x="62" y="23" width="1" height="1" fill="#dff7ff"/>
<rect x="65" y="23" width="1" height="1" fill="#dff7ff"/>
<rect x="66" y="23" width="1" height="1" fill="#dff7ff"/>
<rect x="68" y="23" width="1" height="1" fill="#dff7ff"/>
<rect x="61" y="24" width="1" height="1" fill="#dff7ff"/>
<rect x="62" y="24" width="1" height="1" fill="#dff7ff"/>
<rect x="64" y="24" width="1" height="1" fill="#dff7ff"/>
<rect x="65" y="24" width="1" height="1" fill="#dff7ff"/>
<rect x="67" y="24" width="1" height="1" fill="#dff7ff"/>
<rect x="68" y="24" width="1" height="1" fill="#dff7ff"/>
<rect x="62" y="25" width="1" height="1" fill="#dff7ff"/>
<rect x="64" y="25" width="1" height="1" fill="#dff7ff"/>
<rect x="66" y="25" width="1" height="1" fill="#dff7ff"/>
<rect x="67" y="25" width="1" height="1" fill="#dff7ff"/>
<rect x="65" y="26" width="1" height="1" fill="#dff7ff"/>
<rect x="66" y="26" width="1" height="1" fill="#dff7ff"/>
<rect x="64" y="27" width="1" height="1" fill="#dff7ff"/>
<rect x="65" y="27" width="1" height="1" fill="#dff7ff"/>
<rect x="84" y="14" width="1" height="1" fill="#050b12"/>
<rect x="85" y="14" width="1" height="1" fill="#050b12"/>
<rect x="82" y="15" width="1" height="1" fill="#050b12"/>
<rect x="83" y="15" width="1" height="1" fill="#050b12"/>
<rect x="84" y="15" width="1" height="1" fill="#050b12"/>
<rect x="85" y="15" width="1" height="1" fill="#050b12"/>
<rect x="86" y="15" width="1" height="1" fill="#050b12"/>
<rect x="87" y="15" width="1" height="1" fill="#050b12"/>
<rect x="81" y="16" width="1" height="1" fill="#050b12"/>
<rect x="82" y="16" width="1" height="1" fill="#050b12"/>
<rect x="83" y="16" width="1" height="1" fill="#050b12"/>
<rect x="86" y="16" width="1" height="1" fill="#050b12"/>
<rect x="87" y="16" width="1" height="1" fill="#050b12"/>
<rect x="88" y="16" width="1" height="1" fill="#050b12"/>
<rect x="80" y="17" width="1" height="1" fill="#050b12"/>
<rect x="81" y="17" width="1" height="1" fill="#050b12"/>
<rect x="88" y="17" width="1" height="1" fill="#050b12"/>
<rect x="89" y="17" width="1" height="1" fill="#050b12"/>
<rect x="80" y="18" width="1" height="1" fill="#050b12"/>
<rect x="81" y="18" width="1" height="1" fill="#050b12"/>
<rect x="88" y="18" width="1" height="1" fill="#050b12"/>
<rect x="89" y="18" width="1" height="1" fill="#050b12"/>
<rect x="79" y="19" width="1" height="1" fill="#050b12"/>
<rect x="80" y="19" width="1" height="1" fill="#050b12"/>
<rect x="89" y="19" width="1" height="1" fill="#050b12"/>
<rect x="90" y="19" width="1" height="1" fill="#050b12"/>
<rect x="79" y="20" width="1" height="1" fill="#050b12"/>
<rect x="80" y="20" width="1" height="1" fill="#050b12"/>
<rect x="89" y="20" width="1" height="1" fill="#050b12"/>
<rect x="90" y="20" width="1" height="1" fill="#050b12"/>
<rect x="80" y="21" width="1" height="1" fill="#050b12"/>
<rect x="81" y="21" width="1" height="1" fill="#050b12"/>
<rect x="88" y="21" width="1" height="1" fill="#050b12"/>
<rect x="89" y="21" width="1" height="1" fill="#050b12"/>
<rect x="80" y="22" width="1" height="1" fill="#050b12"/>
<rect x="81" y="22" width="1" height="1" fill="#050b12"/>
<rect x="88" y="22" width="1" height="1" fill="#050b12"/>
<rect x="89" y="22" width="1" height="1" fill="#050b12"/>
<rect x="81" y="23" width="1" height="1" fill="#050b12"/>
<rect x="82" y="23" width="1" height="1" fill="#050b12"/>
<rect x="83" y="23" width="1" height="1" fill="#050b12"/>
<rect x="86" y="23" width="1" height="1" fill="#050b12"/>
<rect x="87" y="23" width="1" height="1" fill="#050b12"/>
<rect x="88" y="23" width="1" height="1" fill="#050b12"/>
<rect x="89" y="23" width="1" height="1" fill="#050b12"/>
<rect x="82" y="24" width="1" height="1" fill="#050b12"/>
<rect x="83" y="24" width="1" height="1" fill="#050b12"/>
<rect x="84" y="24" width="1" height="1" fill="#050b12"/>
<rect x="85" y="24" width="1" height="1" fill="#050b12"/>
<rect x="86" y="24" width="1" height="1" fill="#050b12"/>
<rect x="87" y="24" width="1" height="1" fill="#050b12"/>
<rect x="88" y="24" width="1" height="1" fill="#050b12"/>
<rect x="89" y="24" width="1" height="1" fill="#050b12"/>
<rect x="90" y="24" width="1" height="1" fill="#050b12"/>
<rect x="84" y="25" width="1" height="1" fill="#050b12"/>
<rect x="85" y="25" width="1" height="1" fill="#050b12"/>
<rect x="89" y="25" width="1" height="1" fill="#050b12"/>
<rect x="90" y="25" width="1" height="1" fill="#050b12"/>
<rect x="91" y="25" width="1" height="1" fill="#050b12"/>
<rect x="90" y="26" width="1" height="1" fill="#050b12"/>
<rect x="91" y="26" width="1" height="1" fill="#050b12"/>
<rect x="92" y="26" width="1" height="1" fill="#050b12"/>
<rect x="91" y="27" width="1" height="1" fill="#050b12"/>
<rect x="92" y="27" width="1" height="1" fill="#050b12"/>
<rect x="93" y="27" width="1" height="1" fill="#050b12"/>
<rect x="92" y="28" width="1" height="1" fill="#050b12"/>
<rect x="93" y="28" width="1" height="1" fill="#050b12"/>
<rect x="94" y="28" width="1" height="1" fill="#050b12"/>
<rect x="93" y="29" width="1" height="1" fill="#050b12"/>
<rect x="109" y="14" width="1" height="1" fill="#dff7ff"/>
<rect x="110" y="14" width="1" height="1" fill="#dff7ff"/>
<rect x="111" y="14" width="1" height="1" fill="#dff7ff"/>
<rect x="112" y="14" width="1" height="1" fill="#dff7ff"/>
<rect x="113" y="14" width="1" height="1" fill="#dff7ff"/>
<rect x="107" y="15" width="1" height="1" fill="#dff7ff"/>
<rect x="108" y="15" width="1" height="1" fill="#dff7ff"/>
<rect x="109" y="15" width="1" height="1" fill="#dff7ff"/>
<rect x="110" y="15" width="1" height="1" fill="#dff7ff"/>
<rect x="111" y="15" width="1" height="1" fill="#dff7ff"/>
<rect x="112" y="15" width="1" height="1" fill="#dff7ff"/>
<rect x="113" y="15" width="1" height="1" fill="#dff7ff"/>
<rect x="114" y="15" width="1" height="1" fill="#dff7ff"/>
<rect x="115" y="15" width="1" height="1" fill="#dff7ff"/>
<rect x="106" y="16" width="1" height="1" fill="#dff7ff"/>
<rect x="107" y="16" width="1" height="1" fill="#dff7ff"/>
<rect x="108" y="16" width="1" height="1" fill="#dff7ff"/>
<rect x="109" y="16" width="1" height="1" fill="#dff7ff"/>
<rect x="110" y="16" width="1" height="1" fill="#dff7ff"/>
<rect x="111" y="16" width="1" height="1" fill="#dff7ff"/>
<rect x="112" y="16" width="1" height="1" fill="#dff7ff"/>
<rect x="113" y="16" width="1" height="1" fill="#dff7ff"/>
<rect x="114" y="16" width="1" height="1" fill="#dff7ff"/>
<rect x="115" y="16" width="1" height="1" fill="#dff7ff"/>
<rect x="116" y="16" width="1" height="1" fill="#dff7ff"/>
<rect x="105" y="17" width="1" height="1" fill="#dff7ff"/>
<rect x="106" y="17" width="1" height="1" fill="#dff7ff"/>
<rect x="107" y="17" width="1" height="1" fill="#dff7ff"/>
<rect x="108" y="17" width="1" height="1" fill="#dff7ff"/>
<rect x="109" y="17" width="1" height="1" fill="#dff7ff"/>
<rect x="110" y="17" width="1" height="1" fill="#dff7ff"/>
<rect x="112" y="17" width="1" height="1" fill="#dff7ff"/>
<rect x="113" y="17" width="1" height="1" fill="#dff7ff"/>
<rect x="114" y="17" width="1" height="1" fill="#dff7ff"/>
<rect x="115" y="17" width="1" height="1" fill="#dff7ff"/>
<rect x="116" y="17" width="1" height="1" fill="#dff7ff"/>
<rect x="117" y="17" width="1" height="1" fill="#dff7ff"/>
<rect x="105" y="18" width="1" height="1" fill="#dff7ff"/>
<rect x="106" y="18" width="1" height="1" fill="#dff7ff"/>
<rect x="107" y="18" width="1" height="1" fill="#dff7ff"/>
<rect x="108" y="18" width="1" height="1" fill="#dff7ff"/>
<rect x="109" y="18" width="1" height="1" fill="#dff7ff"/>
<rect x="110" y="18" width="1" height="1" fill="#dff7ff"/>
<rect x="112" y="18" width="1" height="1" fill="#dff7ff"/>
<rect x="113" y="18" width="1" height="1" fill="#dff7ff"/>
<rect x="114" y="18" width="1" height="1" fill="#dff7ff"/>
<rect x="115" y="18" width="1" height="1" fill="#dff7ff"/>
<rect x="116" y="18" width="1" height="1" fill="#dff7ff"/>
<rect x="117" y="18" width="1" height="1" fill="#dff7ff"/>
<rect x="104" y="19" width="1" height="1" fill="#dff7ff"/>
<rect x="105" y="19" width="1" height="1" fill="#dff7ff"/>
<rect x="106" y="19" width="1" height="1" fill="#dff7ff"/>
<rect x="107" y="19" width="1" height="1" fill="#dff7ff"/>
<rect x="108" y="19" width="1" height="1" fill="#dff7ff"/>
<rect x="109" y="19" width="1" height="1" fill="#dff7ff"/>
<rect x="110" y="19" width="1" height="1" fill="#dff7ff"/>
<rect x="111" y="19" width="1" height="1" fill="#dff7ff"/>
<rect x="112" y="19" width="1" height="1" fill="#dff7ff"/>
<rect x="113" y="19" width="1" height="1" fill="#dff7ff"/>
<rect x="114" y="19" width="1" height="1" fill="#dff7ff"/>
<rect x="115" y="19" width="1" height="1" fill="#dff7ff"/>
<rect x="116" y="19" width="1" height="1" fill="#dff7ff"/>
<rect x="117" y="19" width="1" height="1" fill="#dff7ff"/>
<rect x="118" y="19" width="1" height="1" fill="#dff7ff"/>
<rect x="104" y="20" width="1" height="1" fill="#dff7ff"/>
<rect x="105" y="20" width="1" height="1" fill="#dff7ff"/>
<rect x="106" y="20" width="1" height="1" fill="#dff7ff"/>
<rect x="107" y="20" width="1" height="1" fill="#dff7ff"/>
<rect x="108" y="20" width="1" height="1" fill="#dff7ff"/>
<rect x="109" y="20" width="1" height="1" fill="#dff7ff"/>
<rect x="110" y="20" width="1" height="1" fill="#dff7ff"/>
<rect x="112" y="20" width="1" height="1" fill="#dff7ff"/>
<rect x="113" y="20" width="1" height="1" fill="#dff7ff"/>
<rect x="114" y="20" width="1" height="1" fill="#dff7ff"/>
<rect x="115" y="20" width="1" height="1" fill="#dff7ff"/>
<rect x="116" y="20" width="1" height="1" fill="#dff7ff"/>
<rect x="117" y="20" width="1" height="1" fill="#dff7ff"/>
<rect x="118" y="20" width="1" height="1" fill="#dff7ff"/>
<rect x="104" y="21" width="1" height="1" fill="#dff7ff"/>
<rect x="105" y="21" width="1" height="1" fill="#dff7ff"/>
<rect x="106" y="21" width="1" height="1" fill="#dff7ff"/>
<rect x="107" y="21" width="1" height="1" fill="#dff7ff"/>
<rect x="108" y="21" width="1" height="1" fill="#dff7ff"/>
<rect x="109" y="21" width="1" height="1" fill="#dff7ff"/>
<rect x="110" y="21" width="1" height="1" fill="#dff7ff"/>
<rect x="112" y="21" width="1" height="1" fill="#dff7ff"/>
<rect x="113" y="21" width="1" height="1" fill="#dff7ff"/>
<rect x="114" y="21" width="1" height="1" fill="#dff7ff"/>
<rect x="115" y="21" width="1" height="1" fill="#dff7ff"/>
<rect x="116" y="21" width="1" height="1" fill="#dff7ff"/>
<rect x="117" y="21" width="1" height="1" fill="#dff7ff"/>
<rect x="118" y="21" width="1" height="1" fill="#dff7ff"/>
<rect x="104" y="22" width="1" height="1" fill="#dff7ff"/>
<rect x="105" y="22" width="1" height="1" fill="#dff7ff"/>
<rect x="106" y="22" width="1" height="1" fill="#dff7ff"/>
<rect x="107" y="22" width="1" height="1" fill="#dff7ff"/>
<rect x="108" y="22" width="1" height="1" fill="#dff7ff"/>
<rect x="109" y="22" width="1" height="1" fill="#dff7ff"/>
<rect x="110" y="22" width="1" height="1" fill="#dff7ff"/>
<rect x="112" y="22" width="1" height="1" fill="#dff7ff"/>
<rect x="113" y="22" width="1" height="1" fill="#dff7ff"/>
<rect x="114" y="22" width="1" height="1" fill="#dff7ff"/>
<rect x="115" y="22" width="1" height="1" fill="#dff7ff"/>
<rect x="116" y="22" width="1" height="1" fill="#dff7ff"/>
<rect x="117" y="22" width="1" height="1" fill="#dff7ff"/>
<rect x="118" y="22" width="1" height="1" fill="#dff7ff"/>
<rect x="104" y="23" width="1" height="1" fill="#dff7ff"/>
<rect x="105" y="23" width="1" height="1" fill="#dff7ff"/>
<rect x="106" y="23" width="1" height="1" fill="#dff7ff"/>
<rect x="107" y="23" width="1" height="1" fill="#dff7ff"/>
<rect x="108" y="23" width="1" height="1" fill="#dff7ff"/>
<rect x="109" y="23" width="1" height="1" fill="#dff7ff"/>
<rect x="110" y="23" width="1" height="1" fill="#dff7ff"/>
<rect x="112" y="23" width="1" height="1" fill="#dff7ff"/>
<rect x="113" y="23" width="1" height="1" fill="#dff7ff"/>
<rect x="114" y="23" width="1" height="1" fill="#dff7ff"/>
<rect x="115" y="23" width="1" height="1" fill="#dff7ff"/>
<rect x="116" y="23" width="1" height="1" fill="#dff7ff"/>
<rect x="117" y="23" width="1" height="1" fill="#dff7ff"/>
<rect x="118" y="23" width="1" height="1" fill="#dff7ff"/>
<rect x="105" y="24" width="1" height="1" fill="#dff7ff"/>
<rect x="106" y="24" width="1" height="1" fill="#dff7ff"/>
<rect x="107" y="24" width="1" height="1" fill="#dff7ff"/>
<rect x="108" y="24" width="1" height="1" fill="#dff7ff"/>
<rect x="109" y="24" width="1" height="1" fill="#dff7ff"/>
<rect x="110" y="24" width="1" height="1" fill="#dff7ff"/>
<rect x="112" y="24" width="1" height="1" fill="#dff7ff"/>
<rect x="113" y="24" width="1" height="1" fill="#dff7ff"/>
<rect x="114" y="24" width="1" height="1" fill="#dff7ff"/>
<rect x="115" y="24" width="1" height="1" fill="#dff7ff"/>
<rect x="116" y="24" width="1" height="1" fill="#dff7ff"/>
<rect x="117" y="24" width="1" height="1" fill="#dff7ff"/>
<rect x="105" y="25" width="1" height="1" fill="#dff7ff"/>
<rect x="106" y="25" width="1" height="1" fill="#dff7ff"/>
<rect x="107" y="25" width="1" height="1" fill="#dff7ff"/>
<rect x="108" y="25" width="1" height="1" fill="#dff7ff"/>
<rect x="109" y="25" width="1" height="1" fill="#dff7ff"/>
<rect x="110" y="25" width="1" height="1" fill="#dff7ff"/>
<rect x="112" y="25" width="1" height="1" fill="#dff7ff"/>
<rect x="113" y="25" width="1" height="1" fill="#dff7ff"/>
<rect x="114" y="25" width="1" height="1" fill="#dff7ff"/>
<rect x="115" y="25" width="1" height="1" fill="#dff7ff"/>
<rect x="116" y="25" width="1" height="1" fill="#dff7ff"/>
<rect x="117" y="25" width="1" height="1" fill="#dff7ff"/>
<rect x="106" y="26" width="1" height="1" fill="#dff7ff"/>
<rect x="107" y="26" width="1" height="1" fill="#dff7ff"/>
<rect x="108" y="26" width="1" height="1" fill="#dff7ff"/>
<rect x="109" y="26" width="1" height="1" fill="#dff7ff"/>
<rect x="110" y="26" width="1" height="1" fill="#dff7ff"/>
<rect x="111" y="26" width="1" height="1" fill="#dff7ff"/>
<rect x="112" y="26" width="1" height="1" fill="#dff7ff"/>
<rect x="113" y="26" width="1" height="1" fill="#dff7ff"/>
<rect x="114" y="26" width="1" height="1" fill="#dff7ff"/>
<rect x="115" y="26" width="1" height="1" fill="#dff7ff"/>
<rect x="116" y="26" width="1" height="1" fill="#dff7ff"/>
<rect x="107" y="27" width="1" height="1" fill="#dff7ff"/>
<rect x="108" y="27" width="1" height="1" fill="#dff7ff"/>
<rect x="109" y="27" width="1" height="1" fill="#dff7ff"/>
<rect x="110" y="27" width="1" height="1" fill="#dff7ff"/>
<rect x="111" y="27" width="1" height="1" fill="#dff7ff"/>
<rect x="112" y="27" width="1" height="1" fill="#dff7ff"/>
<rect x="113" y="27" width="1" height="1" fill="#dff7ff"/>
<rect x="114" y="27" width="1" height="1" fill="#dff7ff"/>
<rect x="115" y="27" width="1" height="1" fill="#dff7ff"/>
<rect x="109" y="28" width="1" height="1" fill="#dff7ff"/>
<rect x="110" y="28" width="1" height="1" fill="#dff7ff"/>
<rect x="111" y="28" width="1" height="1" fill="#dff7ff"/>
<rect x="112" y="28" width="1" height="1" fill="#dff7ff"/>
<rect x="113" y="28" width="1" height="1" fill="#dff7ff"/>
<text x="64" y="49" font-family="Consolas,monospace" font-size="8" font-weight="700" text-anchor="middle" fill="#e9f7ff">SCAN</text>
<line x1="0" y1="53" x2="128" y2="53" stroke="#dff7ff" stroke-width="1"/>
<text x="16" y="62" font-family="Consolas,monospace" font-size="7" font-weight="400" text-anchor="middle" fill="#e9f7ff">1 &lt;</text>
<line x1="32" y1="53" x2="32" y2="64" stroke="#dff7ff" stroke-width="1"/>
<text x="48" y="62" font-family="Consolas,monospace" font-size="7" font-weight="400" text-anchor="middle" fill="#e9f7ff">2 &gt;</text>
<line x1="64" y1="53" x2="64" y2="64" stroke="#dff7ff" stroke-width="1"/>
<text x="80" y="62" font-family="Consolas,monospace" font-size="7" font-weight="400" text-anchor="middle" fill="#e9f7ff">3 OK</text>
<line x1="96" y1="53" x2="96" y2="64" stroke="#dff7ff" stroke-width="1"/>
<text x="112" y="62" font-family="Consolas,monospace" font-size="7" font-weight="400" text-anchor="middle" fill="#e9f7ff">4 SAI</text>
</svg>
