<svg xmlns="http://www.w3.org/2000/svg" width="512" height="256" viewBox="0 0 128 64">
  <title>Mensagem</title>
  <rect width="128" height="64" rx="4" fill="#050b12"/>
  <rect x="0.5" y="0.5" width="127" height="63" rx="4" fill="none" stroke="#dff7ff"/>
  <text x="64" y="9" font-family="Consolas,monospace" font-size="8" font-weight="700" text-anchor="middle" fill="#e9f7ff">ESTACAO GUARDADA</text>
<text x="64" y="22" font-family="Consolas,monospace" font-size="8" font-weight="400" text-anchor="middle" fill="#e9f7ff">RFM (89.50 MHz)</text>
<text x="64" y="34" font-family="Consolas,monospace" font-size="8" font-weight="400" text-anchor="middle" fill="#e9f7ff">no PRESET 01</text>
<rect x="7" y="35" width="1" height="1" fill="#dff7ff"/>
<rect x="8" y="35" width="1" height="1" fill="#dff7ff"/>
<rect x="9" y="35" width="1" height="1" fill="#dff7ff"/>
<rect x="10" y="35" width="1" height="1" fill="#dff7ff"/>
<rect x="11" y="35" width="1" height="1" fill="#dff7ff"/>
<rect x="5" y="36" width="1" height="1" fill="#dff7ff"/>
<rect x="6" y="36" width="1" height="1" fill="#dff7ff"/>
<rect x="7" y="36" width="1" height="1" fill="#dff7ff"/>
<rect x="8" y="36" width="1" height="1" fill="#dff7ff"/>
<rect x="9" y="36" width="1" height="1" fill="#dff7ff"/>
<rect x="10" y="36" width="1" height="1" fill="#dff7ff"/>
<rect x="11" y="36" width="1" height="1" fill="#dff7ff"/>
<rect x="12" y="36" width="1" height="1" fill="#dff7ff"/>
<rect x="13" y="36" width="1" height="1" fill="#dff7ff"/>
<rect x="4" y="37" width="1" height="1" fill="#dff7ff"/>
<rect x="5" y="37" width="1" height="1" fill="#dff7ff"/>
<rect x="6" y="37" width="1" height="1" fill="#dff7ff"/>
<rect x="7" y="37" width="1" height="1" fill="#dff7ff"/>
<rect x="8" y="37" width="1" height="1" fill="#dff7ff"/>
<rect x="9" y="37" width="1" height="1" fill="#dff7ff"/>
<rect x="10" y="37" width="1" height="1" fill="#dff7ff"/>
<rect x="11" y="37" width="1" height="1" fill="#dff7ff"/>
<rect x="12" y="37" width="1" height="1" fill="#dff7ff"/>
<rect x="13" y="37" width="1" height="1" fill="#dff7ff"/>
<rect x="14" y="37" width="1" height="1" fill="#dff7ff"/>
<rect x="3" y="38" width="1" height="1" fill="#dff7ff"/>
<rect x="4" y="38" width="1" height="1" fill="#dff7ff"/>
<rect x="5" y="38" width="1" height="1" fill="#dff7ff"/>
<rect x="6" y="38" width="1" height="1" fill="#dff7ff"/>
<rect x="7" y="38" width="1" height="1" fill="#dff7ff"/>
<rect x="8" y="38" width="1" height="1" fill="#dff7ff"/>
<rect x="10" y="38" width="1" height="1" fill="#dff7ff"/>
<rect x="11" y="38" width="1" height="1" fill="#dff7ff"/>
<rect x="12" y="38" width="1" height="1" fill="#dff7ff"/>
<rect x="13" y="38" width="1" height="1" fill="#dff7ff"/>
<rect x="14" y="38" width="1" height="1" fill="#dff7ff"/>
<rect x="15" y="38" width="1" height="1" fill="#dff7ff"/>
<rect x="3" y="39" width="1" height="1" fill="#dff7ff"/>
<rect x="4" y="39" width="1" height="1" fill="#dff7ff"/>
<rect x="5" y="39" width="1" height="1" fill="#dff7ff"/>
<rect x="6" y="39" width="1" height="1" fill="#dff7ff"/>
<rect x="7" y="39" width="1" height="1" fill="#dff7ff"/>
<rect x="8" y="39" width="1" height="1" fill="#dff7ff"/>
<rect x="10" y="39" width="1" height="1" fill="#dff7ff"/>
<rect x="11" y="39" width="1" height="1" fill="#dff7ff"/>
<rect x="12" y="39" width="1" height="1" fill="#dff7ff"/>
<rect x="13" y="39" width="1" height="1" fill="#dff7ff"/>
<rect x="14" y="39" width="1" height="1" fill="#dff7ff"/>
<rect x="15" y="39" width="1" height="1" fill="#dff7ff"/>
<rect x="2" y="40" width="1" height="1" fill="#dff7ff"/>
<rect x="3" y="40" width="1" height="1" fill="#dff7ff"/>
<rect x="4" y="40" width="1" height="1" fill="#dff7ff"/>
<rect x="5" y="40" width="1" height="1" fill="#dff7ff"/>
<rect x="6" y="40" width="1" height="1" fill="#dff7ff"/>
<rect x="7" y="40" width="1" height="1" fill="#dff7ff"/>
<rect x="8" y="40" width="1" height="1" fill="#dff7ff"/>
<rect x="9" y="40" width="1" height="1" fill="#dff7ff"/>
<rect x="10" y="40" width="1" height="1" fill="#dff7ff"/>
<rect x="11" y="40" width="1" height="1" fill="#dff7ff"/>
<rect x="12" y="40" width="1" height="1" fill="#dff7ff"/>
<rect x="13" y="40" width="1" height="1" fill="#dff7ff"/>
<rect x="14" y="40" width="1" height="1" fill="#dff7ff"/>
<rect x="15" y="40" width="1" height="1" fill="#dff7ff"/>
<rect x="16" y="40" width="1" height="1" fill="#dff7ff"/>
<rect x="2" y="41" width="1" height="1" fill="#dff7ff"/>
<rect x="3" y="41" width="1" height="1" fill="#dff7ff"/>
<rect x="4" y="41" width="1" height="1" fill="#dff7ff"/>
<rect x="5" y="41" width="1" height="1" fill="#dff7ff"/>
<rect x="6" y="41" width="1" height="1" fill="#dff7ff"/>
<rect x="7" y="41" width="1" height="1" fill="#dff7ff"/>
<rect x="8" y="41" width="1" height="1" fill="#dff7ff"/>
<rect x="10" y="41" width="1" height="1" fill="#dff7ff"/>
<rect x="11" y="41" width="1" height="1" fill="#dff7ff"/>
<rect x="12" y="41" width="1" height="1" fill="#dff7ff"/>
<rect x="13" y="41" width="1" height="1" fill="#dff7ff"/>
<rect x="14" y="41" width="1" height="1" fill="#dff7ff"/>
<rect x="15" y="41" width="1" height="1" fill="#dff7ff"/>
<rect x="16" y="41" width="1" height="1" fill="#dff7ff"/>
<rect x="2" y="42" width="1" height="1" fill="#dff7ff"/>
<rect x="3" y="42" width="1" height="1" fill="#dff7ff"/>
<rect x="4" y="42" width="1" height="1" fill="#dff7ff"/>
<rect x="5" y="42" width="1" height="1" fill="#dff7ff"/>
<rect x="6" y="42" width="1" height="1" fill="#dff7ff"/>
<rect x="7" y="42" width="1" height="1" fill="#dff7ff"/>
<rect x="8" y="42" width="1" height="1" fill="#dff7ff"/>
<rect x="10" y="42" width="1" height="1" fill="#dff7ff"/>
<rect x="11" y="42" width="1" height="1" fill="#dff7ff"/>
<rect x="12" y="42" width="1" height="1" fill="#dff7ff"/>
<rect x="13" y="42" width="1" height="1" fill="#dff7ff"/>
<rect x="14" y="42" width="1" height="1" fill="#dff7ff"/>
<rect x="15" y="42" width="1" height="1" fill="#dff7ff"/>
<rect x="16" y="42" width="1" height="1" fill="#dff7ff"/>
<rect x="2" y="43" width="1" height="1" fill="#dff7ff"/>
<rect x="3" y="43" width="1" height="1" fill="#dff7ff"/>
<rect x="4" y="43" width="1" height="1" fill="#dff7ff"/>
<rect x="5" y="43" width="1" height="1" fill="#dff7ff"/>
<rect x="6" y="43" width="1" height="1" fill="#dff7ff"/>
<rect x="7" y="43" width="1" height="1" fill="#dff7ff"/>
<rect x="8" y="43" width="1" height="1" fill="#dff7ff"/>
<rect x="10" y="43" width="1" height="1" fill="#dff7ff"/>
<rect x="11" y="43" width="1" height="1" fill="#dff7ff"/>
<rect x="12" y="43" width="1" height="1" fill="#dff7ff"/>
<rect x="13" y="43" width="1" height="1" fill="#dff7ff"/>
<rect x="14" y="43" width="1" height="1" fill="#dff7ff"/>
<rect x="15" y="43" width="1" height="1" fill="#dff7ff"/>
<rect x="16" y="43" width="1" height="1" fill="#dff7ff"/>
<rect x="2" y="44" width="1" height="1" fill="#dff7ff"/>
<rect x="3" y="44" width="1" height="1" fill="#dff7ff"/>
<rect x="4" y="44" width="1" height="1" fill="#dff7ff"/>
<rect x="5" y="44" width="1" height="1" fill="#dff7ff"/>
<rect x="6" y="44" width="1" height="1" fill="#dff7ff"/>
<rect x="7" y="44" width="1" height="1" fill="#dff7ff"/>
<rect x="8" y="44" width="1" height="1" fill="#dff7ff"/>
<rect x="10" y="44" width="1" height="1" fill="#dff7ff"/>
<rect x="11" y="44" width="1" height="1" fill="#dff7ff"/>
<rect x="12" y="44" width="1" height="1" fill="#dff7ff"/>
<rect x="13" y="44" width="1" height="1" fill="#dff7ff"/>
<rect x="14" y="44" width="1" height="1" fill="#dff7ff"/>
<rect x="15" y="44" width="1" height="1" fill="#dff7ff"/>
<rect x="16" y="44" width="1" height="1" fill="#dff7ff"/>
<rect x="3" y="45" width="1" height="1" fill="#dff7ff"/>
<rect x="4" y="45" width="1" height="1" fill="#dff7ff"/>
<rect x="5" y="45" width="1" height="1" fill="#dff7ff"/>
<rect x="6" y="45" width="1" height="1" fill="#dff7ff"/>
<rect x="7" y="45" width="1" height="1" fill="#dff7ff"/>
<rect x="8" y="45" width="1" height="1" fill="#dff7ff"/>
<rect x="10" y="45" width="1" height="1" fill="#dff7ff"/>
<rect x="11" y="45" width="1" height="1" fill="#dff7ff"/>
<rect x="12" y="45" width="1" height="1" fill="#dff7ff"/>
<rect x="13" y="45" width="1" height="1" fill="#dff7ff"/>
<rect x="14" y="45" width="1" height="1" fill="#dff7ff"/>
<rect x="15" y="45" width="1" height="1" fill="#dff7ff"/>
<rect x="3" y="46" width="1" height="1" fill="#dff7ff"/>
<rect x="4" y="46" width="1" height="1" fill="#dff7ff"/>
<rect x="5" y="46" width="1" height="1" fill="#dff7ff"/>
<rect x="6" y="46" width="1" height="1" fill="#dff7ff"/>
<rect x="7" y="46" width="1" height="1" fill="#dff7ff"/>
<rect x="8" y="46" width="1" height="1" fill="#dff7ff"/>
<rect x="10" y="46" width="1" height="1" fill="#dff7ff"/>
<rect x="11" y="46" width="1" height="1" fill="#dff7ff"/>
<rect x="12" y="46" width="1" height="1" fill="#dff7ff"/>
<rect x="13" y="46" width="1" height="1" fill="#dff7ff"/>
<rect x="14" y="46" width="1" height="1" fill="#dff7ff"/>
<rect x="15" y="46" width="1" height="1" fill="#dff7ff"/>
<rect x="4" y="47" width="1" height="1" fill="#dff7ff"/>
<rect x="5" y="47" width="1" height="1" fill="#dff7ff"/>
<rect x="6" y="47" width="1" height="1" fill="#dff7ff"/>
<rect x="7" y="47" width="1" height="1" fill="#dff7ff"/>
<rect x="8" y="47" width="1" height="1" fill="#dff7ff"/>
<rect x="9" y="47" width="1" height="1" fill="#dff7ff"/>
<rect x="10" y="47" width="1" height="1" fill="#dff7ff"/>
<rect x="11" y="47" width="1" height="1" fill="#dff7ff"/>
<rect x="12" y="47" width="1" height="1" fill="#dff7ff"/>
<rect x="13" y="47" width="1" height="1" fill="#dff7ff"/>
<rect x="14" y="47" width="1" height="1" fill="#dff7ff"/>
<rect x="5" y="48" width="1" height="1" fill="#dff7ff"/>
<rect x="6" y="48" width="1" height="1" fill="#dff7ff"/>
<rect x="7" y="48" width="1" height="1" fill="#dff7ff"/>
<rect x="8" y="48" width="1" height="1" fill="#dff7ff"/>
<rect x="9" y="48" width="1" height="1" fill="#dff7ff"/>
<rect x="10" y="48" width="1" height="1" fill="#dff7ff"/>
<rect x="11" y="48" width="1" height="1" fill="#dff7ff"/>
<rect x="12" y="48" width="1" height="1" fill="#dff7ff"/>
<rect x="13" y="48" width="1" height="1" fill="#dff7ff"/>
<rect x="7" y="49" width="1" height="1" fill="#dff7ff"/>
<rect x="8" y="49" width="1" height="1" fill="#dff7ff"/>
<rect x="9" y="49" width="1" height="1" fill="#dff7ff"/>
<rect x="10" y="49" width="1" height="1" fill="#dff7ff"/>
<rect x="11" y="49" width="1" height="1" fill="#dff7ff"/>
<rect x="114" y="35" width="1" height="1" fill="#dff7ff"/>
<rect x="115" y="35" width="1" height="1" fill="#dff7ff"/>
<rect x="116" y="35" width="1" height="1" fill="#dff7ff"/>
<rect x="117" y="35" width="1" height="1" fill="#dff7ff"/>
<rect x="118" y="35" width="1" height="1" fill="#dff7ff"/>
<rect x="112" y="36" width="1" height="1" fill="#dff7ff"/>
<rect x="113" y="36" width="1" height="1" fill="#dff7ff"/>
<rect x="114" y="36" width="1" height="1" fill="#dff7ff"/>
<rect x="115" y="36" width="1" height="1" fill="#dff7ff"/>
<rect x="116" y="36" width="1" height="1" fill="#dff7ff"/>
<rect x="117" y="36" width="1" height="1" fill="#dff7ff"/>
<rect x="118" y="36" width="1" height="1" fill="#dff7ff"/>
<rect x="119" y="36" width="1" height="1" fill="#dff7ff"/>
<rect x="120" y="36" width="1" height="1" fill="#dff7ff"/>
<rect x="111" y="37" width="1" height="1" fill="#dff7ff"/>
<rect x="112" y="37" width="1" height="1" fill="#dff7ff"/>
<rect x="113" y="37" width="1" height="1" fill="#dff7ff"/>
<rect x="114" y="37" width="1" height="1" fill="#dff7ff"/>
<rect x="115" y="37" width="1" height="1" fill="#dff7ff"/>
<rect x="116" y="37" width="1" height="1" fill="#dff7ff"/>
<rect x="117" y="37" width="1" height="1" fill="#dff7ff"/>
<rect x="118" y="37" width="1" height="1" fill="#dff7ff"/>
<rect x="119" y="37" width="1" height="1" fill="#dff7ff"/>
<rect x="120" y="37" width="1" height="1" fill="#dff7ff"/>
<rect x="121" y="37" width="1" height="1" fill="#dff7ff"/>
<rect x="110" y="38" width="1" height="1" fill="#dff7ff"/>
<rect x="111" y="38" width="1" height="1" fill="#dff7ff"/>
<rect x="112" y="38" width="1" height="1" fill="#dff7ff"/>
<rect x="113" y="38" width="1" height="1" fill="#dff7ff"/>
<rect x="114" y="38" width="1" height="1" fill="#dff7ff"/>
<rect x="115" y="38" width="1" height="1" fill="#dff7ff"/>
<rect x="116" y="38" width="1" height="1" fill="#dff7ff"/>
<rect x="117" y="38" width="1" height="1" fill="#dff7ff"/>
<rect x="118" y="38" width="1" height="1" fill="#dff7ff"/>
<rect x="119" y="38" width="1" height="1" fill="#dff7ff"/>
<rect x="120" y="38" width="1" height="1" fill="#dff7ff"/>
<rect x="121" y="38" width="1" height="1" fill="#dff7ff"/>
<rect x="122" y="38" width="1" height="1" fill="#dff7ff"/>
<rect x="110" y="39" width="1" height="1" fill="#dff7ff"/>
<rect x="111" y="39" width="1" height="1" fill="#dff7ff"/>
<rect x="112" y="39" width="1" height="1" fill="#dff7ff"/>
<rect x="113" y="39" width="1" height="1" fill="#dff7ff"/>
<rect x="114" y="39" width="1" height="1" fill="#dff7ff"/>
<rect x="115" y="39" width="1" height="1" fill="#dff7ff"/>
<rect x="116" y="39" width="1" height="1" fill="#dff7ff"/>
<rect x="117" y="39" width="1" height="1" fill="#dff7ff"/>
<rect x="118" y="39" width="1" height="1" fill="#dff7ff"/>
<rect x="121" y="39" width="1" height="1" fill="#dff7ff"/>
<rect x="122" y="39" width="1" height="1" fill="#dff7ff"/>
<rect x="109" y="40" width="1" height="1" fill="#dff7ff"/>
<rect x="110" y="40" width="1" height="1" fill="#dff7ff"/>
<rect x="111" y="40" width="1" height="1" fill="#dff7ff"/>
<rect x="112" y="40" width="1" height="1" fill="#dff7ff"/>
<rect x="113" y="40" width="1" height="1" fill="#dff7ff"/>
<rect x="114" y="40" width="1" height="1" fill="#dff7ff"/>
<rect x="115" y="40" width="1" height="1" fill="#dff7ff"/>
<rect x="116" y="40" width="1" height="1" fill="#dff7ff"/>
<rect x="117" y="40" width="1" height="1" fill="#dff7ff"/>
<rect x="121" y="40" width="1" height="1" fill="#dff7ff"/>
<rect x="122" y="40" width="1" height="1" fill="#dff7ff"/>
<rect x="123" y="40" width="1" height="1" fill="#dff7ff"/>
<rect x="109" y="41" width="1" height="1" fill="#dff7ff"/>
<rect x="110" y="41" width="1" height="1" fill="#dff7ff"/>
<rect x="111" y="41" width="1" height="1" fill="#dff7ff"/>
<rect x="112" y="41" width="1" height="1" fill="#dff7ff"/>
<rect x="113" y="41" width="1" height="1" fill="#dff7ff"/>
<rect x="114" y="41" width="1" height="1" fill="#dff7ff"/>
<rect x="115" y="41" width="1" height="1" fill="#dff7ff"/>
<rect x="116" y="41" width="1" height="1" fill="#dff7ff"/>
<rect x="120" y="41" width="1" height="1" fill="#dff7ff"/>
<rect x="121" y="41" width="1" height="1" fill="#dff7ff"/>
<rect x="122" y="41" width="1" height="1" fill="#dff7ff"/>
<rect x="123" y="41" width="1" height="1" fill="#dff7ff"/>
<rect x="109" y="42" width="1" height="1" fill="#dff7ff"/>
<rect x="110" y="42" width="1" height="1" fill="#dff7ff"/>
<rect x="111" y="42" width="1" height="1" fill="#dff7ff"/>
<rect x="114" y="42" width="1" height="1" fill="#dff7ff"/>
<rect x="115" y="42" width="1" height="1" fill="#dff7ff"/>
<rect x="116" y="42" width="1" height="1" fill="#dff7ff"/>
<rect x="119" y="42" width="1" height="1" fill="#dff7ff"/>
<rect x="120" y="42" width="1" height="1" fill="#dff7ff"/>
<rect x="121" y="42" width="1" height="1" fill="#dff7ff"/>
<rect x="122" y="42" width="1" height="1" fill="#dff7ff"/>
<rect x="123" y="42" width="1" height="1" fill="#dff7ff"/>
<rect x="109" y="43" width="1" height="1" fill="#dff7ff"/>
<rect x="110" y="43" width="1" height="1" fill="#dff7ff"/>
<rect x="111" y="43" width="1" height="1" fill="#dff7ff"/>
<rect x="115" y="43" width="1" height="1" fill="#dff7ff"/>
<rect x="119" y="43" width="1" height="1" fill="#dff7ff"/>
<rect x="120" y="43" width="1" height="1" fill="#dff7ff"/>
<rect x="121" y="43" width="1" height="1" fill="#dff7ff"/>
<rect x="122" y="43" width="1" height="1" fill="#dff7ff"/>
<rect x="123" y="43" width="1" height="1" fill="#dff7ff"/>
<rect x="109" y="44" width="1" height="1" fill="#dff7ff"/>
<rect x="110" y="44" width="1" height="1" fill="#dff7ff"/>
<rect x="111" y="44" width="1" height="1" fill="#dff7ff"/>
<rect x="112" y="44" width="1" height="1" fill="#dff7ff"/>
<rect x="118" y="44" width="1" height="1" fill="#dff7ff"/>
<rect x="119" y="44" width="1" height="1" fill="#dff7ff"/>
<rect x="120" y="44" width="1" height="1" fill="#dff7ff"/>
<rect x="121" y="44" width="1" height="1" fill="#dff7ff"/>
<rect x="122" y="44" width="1" height="1" fill="#dff7ff"/>
<rect x="123" y="44" width="1" height="1" fill="#dff7ff"/>
<rect x="110" y="45" width="1" height="1" fill="#dff7ff"/>
<rect x="111" y="45" width="1" height="1" fill="#dff7ff"/>
<rect x="112" y="45" width="1" height="1" fill="#dff7ff"/>
<rect x="113" y="45" width="1" height="1" fill="#dff7ff"/>
<rect x="117" y="45" width="1" height="1" fill="#dff7ff"/>
<rect x="118" y="45" width="1" height="1" fill="#dff7ff"/>
<rect x="119" y="45" width="1" height="1" fill="#dff7ff"/>
<rect x="120" y="45" width="1" height="1" fill="#dff7ff"/>
<rect x="121" y="45" width="1" height="1" fill="#dff7ff"/>
<rect x="122" y="45" width="1" height="1" fill="#dff7ff"/>
<rect x="110" y="46" width="1" height="1" fill="#dff7ff"/>
<rect x="111" y="46" width="1" height="1" fill="#dff7ff"/>
<rect x="112" y="46" width="1" height="1" fill="#dff7ff"/>
<rect x="113" y="46" width="1" height="1" fill="#dff7ff"/>
<rect x="114" y="46" width="1" height="1" fill="#dff7ff"/>
<rect x="115" y="46" width="1" height="1" fill="#dff7ff"/>
<rect x="116" y="46" width="1" height="1" fill="#dff7ff"/>
<rect x="117" y="46" width="1" height="1" fill="#dff7ff"/>
<rect x="118" y="46" width="1" height="1" fill="#dff7ff"/>
<rect x="119" y="46" width="1" height="1" fill="#dff7ff"/>
<rect x="120" y="46" width="1" height="1" fill="#dff7ff"/>
<rect x="121" y="46" width="1" height="1" fill="#dff7ff"/>
<rect x="122" y="46" width="1" height="1" fill="#dff7ff"/>
<rect x="111" y="47" width="1" height="1" fill="#dff7ff"/>
<rect x="112" y="47" width="1" height="1" fill="#dff7ff"/>
<rect x="113" y="47" width="1" height="1" fill="#dff7ff"/>
<rect x="114" y="47" width="1" height="1" fill="#dff7ff"/>
<rect x="115" y="47" width="1" height="1" fill="#dff7ff"/>
<rect x="116" y="47" width="1" height="1" fill="#dff7ff"/>
<rect x="117" y="47" width="1" height="1" fill="#dff7ff"/>
<rect x="118" y="47" width="1" height="1" fill="#dff7ff"/>
<rect x="119" y="47" width="1" height="1" fill="#dff7ff"/>
<rect x="120" y="47" width="1" height="1" fill="#dff7ff"/>
<rect x="121" y="47" width="1" height="1" fill="#dff7ff"/>
<rect x="112" y="48" width="1" height="1" fill="#dff7ff"/>
<rect x="113" y="48" width="1" height="1" fill="#dff7ff"/>
<rect x="114" y="48" width="1" height="1" fill="#dff7ff"/>
<rect x="115" y="48" width="1" height="1" fill="#dff7ff"/>
<rect x="116" y="48" width="1" height="1" fill="#dff7ff"/>
<rect x="117" y="48" width="1" height="1" fill="#dff7ff"/>
<rect x="118" y="48" width="1" height="1" fill="#dff7ff"/>
<rect x="119" y="48" width="1" height="1" fill="#dff7ff"/>
<rect x="120" y="48" width="1" height="1" fill="#dff7ff"/>
<rect x="114" y="49" width="1" height="1" fill="#dff7ff"/>
<rect x="115" y="49" width="1" height="1" fill="#dff7ff"/>
<rect x="116" y="49" width="1" height="1" fill="#dff7ff"/>
<rect x="117" y="49" width="1" height="1" fill="#dff7ff"/>
<rect x="118" y="49" width="1" height="1" fill="#dff7ff"/>
<line x1="0" y1="53" x2="128" y2="53" stroke="#dff7ff" stroke-width="1"/>
<text x="16" y="62" font-family="Consolas,monospace" font-size="7" font-weight="400" text-anchor="middle" fill="#e9f7ff">1 &lt;</text>
<line x1="32" y1="53" x2="32" y2="64" stroke="#dff7ff" stroke-width="1"/>
<text x="48" y="62" font-family="Consolas,monospace" font-size="7" font-weight="400" text-anchor="middle" fill="#e9f7ff">2 &gt;</text>
<line x1="64" y1="53" x2="64" y2="64" stroke="#dff7ff" stroke-width="1"/>
<text x="80" y="62" font-family="Consolas,monospace" font-size="7" font-weight="400" text-anchor="middle" fill="#e9f7ff">3 OK</text>
<line x1="96" y1="53" x2="96" y2="64" stroke="#dff7ff" stroke-width="1"/>
<text x="112" y="62" font-family="Consolas,monospace" font-size="7" font-weight="400" text-anchor="middle" fill="#e9f7ff">4 SAI</text>
</svg>
