<svg xmlns="http://www.w3.org/2000/svg" width="512" height="256" viewBox="0 0 128 64">
  <title>Apresentacao</title>
  <rect width="128" height="64" rx="4" fill="#050b12"/>
  <rect x="0.5" y="0.5" width="127" height="63" rx="4" fill="none" stroke="#dff7ff"/>
  <rect x="69" y="8" width="1" height="1" fill="#dff7ff"/>
<rect x="70" y="8" width="1" height="1" fill="#dff7ff"/>
<rect x="68" y="9" width="1" height="1" fill="#dff7ff"/>
<rect x="69" y="9" width="1" height="1" fill="#dff7ff"/>
<rect x="70" y="9" width="1" height="1" fill="#dff7ff"/>
<rect x="67" y="10" width="1" height="1" fill="#dff7ff"/>
<rect x="68" y="10" width="1" height="1" fill="#dff7ff"/>
<rect x="66" y="11" width="1" height="1" fill="#dff7ff"/>
<rect x="67" y="11" width="1" height="1" fill="#dff7ff"/>
<rect x="57" y="12" width="1" height="1" fill="#dff7ff"/>
<rect x="58" y="12" width="1" height="1" fill="#dff7ff"/>
<rect x="59" y="12" width="1" height="1" fill="#dff7ff"/>
<rect x="60" y="12" width="1" height="1" fill="#dff7ff"/>
<rect x="61" y="12" width="1" height="1" fill="#dff7ff"/>
<rect x="62" y="12" width="1" height="1" fill="#dff7ff"/>
<rect x="63" y="12" width="1" height="1" fill="#dff7ff"/>
<rect x="64" y="12" width="1" height="1" fill="#dff7ff"/>
<rect x="65" y="12" width="1" height="1" fill="#dff7ff"/>
<rect x="66" y="12" width="1" height="1" fill="#dff7ff"/>
<rect x="67" y="12" width="1" height="1" fill="#dff7ff"/>
<rect x="68" y="12" width="1" height="1" fill="#dff7ff"/>
<rect x="69" y="12" width="1" height="1" fill="#dff7ff"/>
<rect x="70" y="12" width="1" height="1" fill="#dff7ff"/>
<rect x="57" y="13" width="1" height="1" fill="#dff7ff"/>
<rect x="58" y="13" width="1" height="1" fill="#dff7ff"/>
<rect x="59" y="13" width="1" height="1" fill="#dff7ff"/>
<rect x="60" y="13" width="1" height="1" fill="#dff7ff"/>
<rect x="61" y="13" width="1" height="1" fill="#dff7ff"/>
<rect x="62" y="13" width="1" height="1" fill="#dff7ff"/>
<rect x="63" y="13" width="1" height="1" fill="#dff7ff"/>
<rect x="64" y="13" width="1" height="1" fill="#dff7ff"/>
<rect x="65" y="13" width="1" height="1" fill="#dff7ff"/>
<rect x="66" y="13" width="1" height="1" fill="#dff7ff"/>
<rect x="67" y="13" width="1" height="1" fill="#dff7ff"/>
<rect x="68" y="13" width="1" height="1" fill="#dff7ff"/>
<rect x="69" y="13" width="1" height="1" fill="#dff7ff"/>
<rect x="70" y="13" width="1" height="1" fill="#dff7ff"/>
<rect x="57" y="14" width="1" height="1" fill="#dff7ff"/>
<rect x="58" y="14" width="1" height="1" fill="#dff7ff"/>
<rect x="59" y="14" width="1" height="1" fill="#dff7ff"/>
<rect x="60" y="14" width="1" height="1" fill="#dff7ff"/>
<rect x="61" y="14" width="1" height="1" fill="#dff7ff"/>
<rect x="62" y="14" width="1" height="1" fill="#dff7ff"/>
<rect x="63" y="14" width="1" height="1" fill="#dff7ff"/>
<rect x="64" y="14" width="1" height="1" fill="#dff7ff"/>
<rect x="69" y="14" width="1" height="1" fill="#dff7ff"/>
<rect x="70" y="14" width="1" height="1" fill="#dff7ff"/>
<rect x="57" y="15" width="1" height="1" fill="#dff7ff"/>
<rect x="58" y="15" width="1" height="1" fill="#dff7ff"/>
<rect x="63" y="15" width="1" height="1" fill="#dff7ff"/>
<rect x="64" y="15" width="1" height="1" fill="#dff7ff"/>
<rect x="65" y="15" width="1" height="1" fill="#dff7ff"/>
<rect x="66" y="15" width="1" height="1" fill="#dff7ff"/>
<rect x="67" y="15" width="1" height="1" fill="#dff7ff"/>
<rect x="68" y="15" width="1" height="1" fill="#dff7ff"/>
<rect x="69" y="15" width="1" height="1" fill="#dff7ff"/>
<rect x="70" y="15" width="1" height="1" fill="#dff7ff"/>
<rect x="57" y="16" width="1" height="1" fill="#dff7ff"/>
<rect x="64" y="16" width="1" height="1" fill="#dff7ff"/>
<rect x="65" y="16" width="1" height="1" fill="#dff7ff"/>
<rect x="66" y="16" width="1" height="1" fill="#dff7ff"/>
<rect x="67" y="16" width="1" height="1" fill="#dff7ff"/>
<rect x="68" y="16" width="1" height="1" fill="#dff7ff"/>
<rect x="69" y="16" width="1" height="1" fill="#dff7ff"/>
<rect x="70" y="16" width="1" height="1" fill="#dff7ff"/>
<rect x="57" y="17" width="1" height="1" fill="#dff7ff"/>
<rect x="64" y="17" width="1" height="1" fill="#dff7ff"/>
<rect x="65" y="17" width="1" height="1" fill="#dff7ff"/>
<rect x="66" y="17" width="1" height="1" fill="#dff7ff"/>
<rect x="67" y="17" width="1" height="1" fill="#dff7ff"/>
<rect x="68" y="17" width="1" height="1" fill="#dff7ff"/>
<rect x="69" y="17" width="1" height="1" fill="#dff7ff"/>
<rect x="70" y="17" width="1" height="1" fill="#dff7ff"/>
<rect x="57" y="18" width="1" height="1" fill="#dff7ff"/>
<rect x="64" y="18" width="1" height="1" fill="#dff7ff"/>
<rect x="69" y="18" width="1" height="1" fill="#dff7ff"/>
<rect x="70" y="18" width="1" height="1" fill="#dff7ff"/>
<rect x="57" y="19" width="1" height="1" fill="#dff7ff"/>
<rect x="58" y="19" width="1" height="1" fill="#dff7ff"/>
<rect x="63" y="19" width="1" height="1" fill="#dff7ff"/>
<rect x="64" y="19" width="1" height="1" fill="#dff7ff"/>
<rect x="69" y="19" width="1" height="1" fill="#dff7ff"/>
<rect x="70" y="19" width="1" height="1" fill="#dff7ff"/>
<rect x="57" y="20" width="1" height="1" fill="#dff7ff"/>
<rect x="58" y="20" width="1" height="1" fill="#dff7ff"/>
<rect x="59" y="20" width="1" height="1" fill="#dff7ff"/>
<rect x="60" y="20" width="1" height="1" fill="#dff7ff"/>
<rect x="61" y="20" width="1" height="1" fill="#dff7ff"/>
<rect x="62" y="20" width="1" height="1" fill="#dff7ff"/>
<rect x="63" y="20" width="1" height="1" fill="#dff7ff"/>
<rect x="64" y="20" width="1" height="1" fill="#dff7ff"/>
<rect x="65" y="20" width="1" height="1" fill="#dff7ff"/>
<rect x="66" y="20" width="1" height="1" fill="#dff7ff"/>
<rect x="67" y="20" width="1" height="1" fill="#dff7ff"/>
<rect x="68" y="20" width="1" height="1" fill="#dff7ff"/>
<rect x="69" y="20" width="1" height="1" fill="#dff7ff"/>
<rect x="70" y="20" width="1" height="1" fill="#dff7ff"/>
<rect x="57" y="21" width="1" height="1" fill="#dff7ff"/>
<rect x="58" y="21" width="1" height="1" fill="#dff7ff"/>
<rect x="59" y="21" width="1" height="1" fill="#dff7ff"/>
<rect x="60" y="21" width="1" height="1" fill="#dff7ff"/>
<rect x="61" y="21" width="1" height="1" fill="#dff7ff"/>
<rect x="62" y="21" width="1" height="1" fill="#dff7ff"/>
<rect x="63" y="21" width="1" height="1" fill="#dff7ff"/>
<rect x="64" y="21" width="1" height="1" fill="#dff7ff"/>
<rect x="65" y="21" width="1" height="1" fill="#dff7ff"/>
<rect x="66" y="21" width="1" height="1" fill="#dff7ff"/>
<rect x="67" y="21" width="1" height="1" fill="#dff7ff"/>
<rect x="68" y="21" width="1" height="1" fill="#dff7ff"/>
<rect x="69" y="21" width="1" height="1" fill="#dff7ff"/>
<rect x="70" y="21" width="1" height="1" fill="#dff7ff"/>
<text x="64" y="32" font-family="Consolas,monospace" font-size="14" font-weight="700" text-anchor="middle" fill="#e9f7ff">FM RADIO</text>
<text x="64" y="46" font-family="Consolas,monospace" font-size="7" font-weight="400" text-anchor="middle" fill="#e9f7ff">ESP32-C3 + Si4703</text>
<rect x="14" y="55" width="100" height="5" fill="none" stroke="#dff7ff"/>
<rect x="15" y="56" width="54" height="3" fill="#dff7ff"/>
</svg>
